<svg xmlns="http://www.w3.org/2000/svg" viewBox="0 0 256 256" fill="none"><defs>
<linearGradient id="purpleLogo" x1="55" y1="35" x2="202" y2="220" gradientUnits="userSpaceOnUse">
  <stop stop-color="#925CFF"/>
  <stop offset=".52" stop-color="#5B32E9"/>
  <stop offset="1" stop-color="#26177A"/>
</linearGradient>
<linearGradient id="rating" x1="45" y1="35" x2="215" y2="220" gradientUnits="userSpaceOnUse">
  <stop stop-color="#7652F5"/>
  <stop offset=".55" stop-color="#4932C6"/>
  <stop offset="1" stop-color="#261D78"/>
</linearGradient>
<linearGradient id="success" x1="70" y1="45" x2="190" y2="215" gradientUnits="userSpaceOnUse">
  <stop stop-color="#25D893"/>
  <stop offset="1" stop-color="#0A4638"/>
</linearGradient>
</defs>
<rect x="10" y="15" width="112" height="72" rx="12" fill="#B5B9F9"/><circle cx="66" cy="51" r="24" fill="#31248F"/><path d="m58 38 23 13-23 13V38Z" fill="#FFFFFF"/>
<rect x="134" y="15" width="112" height="72" rx="12" fill="#54815C"/><rect x="171" y="33" width="39" height="40" rx="10" fill="#19202C"/><circle cx="190" cy="53" r="10" fill="#424C5F"/>
<rect x="10" y="99" width="112" height="72" rx="12" fill="#D6D9CE"/><rect x="34" y="121" width="64" height="32" rx="6" fill="#FFFFFF"/><path d="m42 145 18-16 13 12 12-9 9 13H42Z" fill="#E99B4D"/>
<rect x="134" y="99" width="112" height="72" rx="12" fill="#D995AA"/><rect x="170" y="117" width="40" height="40" rx="6" fill="#F6F7FB"/><circle cx="190" cy="137" r="10" fill="#3156F3"/>
<rect x="10" y="183" width="112" height="62" rx="12" fill="#5CA9F8"/><path d="M31 201h43v28H31zM74 196h29v34H74z" fill="#CFE9FF"/>
<rect x="134" y="183" width="112" height="62" rx="12" fill="#416FE5"/><path d="M190 195 215 207v20l-25 12-25-12v-20l25-12Z" stroke="#D7E3FF" stroke-width="4"/>
</svg>